<svg xmlns="http://www.w3.org/2000/svg" preserveAspectRatio="xMidYMid" width="44" height="37"><defs><filter id="a" filterUnits="userSpaceOnUse"><feFlood flood-color="#bb2268" flood-opacity="1"/><feComposite operator="in" in2="SourceGraphic"/><feBlend in2="SourceGraphic" result="colorOverlay"/></filter></defs><path d="M42.377 36.116H4.84c-2.664 0-4.831-2.151-4.831-4.796V12.387c0-2.645 2.167-4.796 4.831-4.796h4.363l25.98-7.59a.867.867 0 0 1 .658.071c.201.11.35.295.413.513l2.025 7.006h4.098c.475 0 .861.383.861.855v26.815a.858.858 0 0 1-.861.855zM34.838 1.884l-1.93.564 1.667.855.79.405-.527-1.824zm1.18 4.083l-2.92-1.497-2.58-1.323-15.214 4.444h21.184l-.47-1.624zm5.498 13.007h-6.94c-1.6 0-2.901 1.292-2.901 2.88 0 1.588 1.301 2.88 2.901 2.88h6.94v-5.76zm0 7.47h-6.94c-2.549 0-4.623-2.06-4.623-4.59 0-2.531 2.074-4.591 4.623-4.591h6.939V9.301H4.84c-1.714 0-3.108 1.384-3.108 3.086V31.32c0 1.702 1.394 3.086 3.108 3.086h36.676v-7.962zm-19.245 5.221h.604c.475 0 .861.382.861.855a.858.858 0 0 1-.861.855h-.604a.858.858 0 0 1-.861-.855c0-.473.385-.855.861-.855zm4.314 0h12.944c.476 0 .861.382.861.855a.858.858 0 0 1-.861.855H26.585a.858.858 0 0 1-.861-.855c0-.473.386-.855.861-.855zm5.697-9.811a2.323 2.323 0 0 1 2.328-2.312 2.323 2.323 0 0 1 2.329 2.312 2.323 2.323 0 0 1-2.329 2.311 2.323 2.323 0 0 1-2.328-2.311zm2.329.601c.334 0 .605-.27.605-.601a.605.605 0 1 0-1.211 0c0 .331.272.601.606.601z" fill-rule="evenodd" fill="#4a1570" filter="url(#a)"/></svg>