<svg xmlns="http://www.w3.org/2000/svg" preserveAspectRatio="xMidYMid" width="52" height="41"><defs><filter id="a" filterUnits="userSpaceOnUse"><feFlood flood-color="#bb2268" flood-opacity="1"/><feComposite operator="in" in2="SourceGraphic"/><feBlend in2="SourceGraphic" result="colorOverlay"/></filter></defs><path d="M51.4 24.537H40.91v14.852c0 .564-.467 1.021-1.044 1.021H1.049a1.033 1.033 0 0 1-1.045-1.021V16.904c0-.564.468-1.021 1.045-1.021h10.49V1.031c0-.565.468-1.022 1.044-1.022H51.4c.577 0 1.045.457 1.045 1.022v22.484c0 .564-.468 1.022-1.045 1.022zM2.093 17.926v20.441h36.728V17.926H2.093zM50.356 2.052H13.628v2.913h36.728V2.052zm0 4.956H13.628v2.793h36.728V7.008zm0 4.836H13.628v4.039h26.238c.577 0 1.044.457 1.044 1.021v5.589h9.446V11.844zM32.162 35.961a3.91 3.91 0 0 1-1.905-.492 3.964 3.964 0 0 1-1.907.492c-2.136 0-3.873-1.699-3.873-3.787 0-2.089 1.737-3.788 3.873-3.788.669 0 1.328.173 1.907.492a3.92 3.92 0 0 1 1.905-.492c2.136 0 3.873 1.699 3.873 3.788 0 2.088-1.737 3.787-3.873 3.787zm-3.455-5.496a1.84 1.84 0 0 0-.357-.036c-.984 0-1.784.783-1.784 1.745 0 .961.8 1.744 1.784 1.744.122 0 .241-.013.357-.036a3.693 3.693 0 0 1 0-3.417zm3.455-.036c-.984 0-1.784.783-1.784 1.745 0 .961.8 1.744 1.784 1.744s1.784-.783 1.784-1.744c0-.962-.8-1.745-1.784-1.745zm1.924-7.095h-3.769a1.032 1.032 0 0 1-1.044-1.021c0-.564.467-1.022 1.044-1.022h3.769c.577 0 1.045.458 1.045 1.022 0 .564-.468 1.021-1.045 1.021zm-7.827 0H22.49a1.032 1.032 0 0 1-1.044-1.021c0-.564.467-1.022 1.044-1.022h3.769c.577 0 1.045.458 1.045 1.022 0 .564-.468 1.021-1.045 1.021zm-7.87 0H14.62a1.033 1.033 0 0 1-1.045-1.021c0-.564.468-1.022 1.045-1.022h3.769c.576 0 1.044.458 1.044 1.022 0 .564-.468 1.021-1.044 1.021zm-7.915 0H6.706a1.033 1.033 0 0 1-1.045-1.021c0-.564.468-1.022 1.045-1.022h3.768c.577 0 1.045.458 1.045 1.022 0 .564-.468 1.021-1.045 1.021z" fill-rule="evenodd" fill="#4a1570" filter="url(#a)"/></svg>