<svg xmlns="http://www.w3.org/2000/svg" preserveAspectRatio="xMidYMid" width="41" height="37"><path d="M39.582 36.846H.797a.81.81 0 0 1-.54-1.408L39.042.199a.8.8 0 0 1 .866-.139.807.807 0 0 1 .478.738v35.24c0 .446-.36.808-.804.808zm-.805-34.227L2.886 35.23h35.891V2.619zm-1.942 20.168c.445 0 .805.362.805.808v.485c0 .447-.36.809-.805.809a.806.806 0 0 1-.804-.809v-.485c0-.446.36-.808.804-.808zm0 3.314c.445 0 .805.362.805.808v6.144c0 .446-.36.808-.805.808a.806.806 0 0 1-.804-.808v-6.144c0-.446.36-.808.804-.808zM29.593 6.84a.806.806 0 0 1-.804-.809V2.728L3.263 27.651a.8.8 0 0 1-1.138-.016.812.812 0 0 1 .016-1.144L27.589 1.645h-3.167a.807.807 0 0 1-.805-.809c0-.446.36-.808.805-.808h5.171c.445 0 .805.362.805.808v5.195c0 .447-.36.809-.805.809z" fill-rule="evenodd" fill="#bb2268"/></svg>