<svg xmlns="http://www.w3.org/2000/svg" xmlns:xlink="http://www.w3.org/1999/xlink" preserveAspectRatio="xMidYMid" width="41" height="23" viewBox="0 0 41 23">
  <defs>
    <style>

      .cls-2 {
        fill: #ffffff;
      }
    </style>
  </defs>
  <path d="M36.125,23.000 C36.125,23.000 4.000,23.000 4.000,23.000 C1.791,23.000 -0.000,21.209 -0.000,19.000 C-0.000,19.000 -0.000,7.875 -0.000,7.875 C-0.000,7.875 40.125,7.875 40.125,7.875 C40.125,7.875 40.125,19.000 40.125,19.000 C40.125,21.209 38.334,23.000 36.125,23.000 ZM-0.000,4.000 C-0.000,1.791 1.791,-0.000 4.000,-0.000 C4.000,-0.000 36.125,-0.000 36.125,-0.000 C38.334,-0.000 40.125,1.791 40.125,4.000 C40.125,4.000 40.125,5.250 40.125,5.250 C40.125,5.250 -0.000,5.250 -0.000,5.250 C-0.000,5.250 -0.000,4.000 -0.000,4.000 Z" id="path-1" class="cls-2" fill-rule="evenodd"/>
</svg>
