<svg xmlns="http://www.w3.org/2000/svg" xmlns:xlink="http://www.w3.org/1999/xlink" preserveAspectRatio="xMidYMid" width="52" height="41" viewBox="0 0 52 41">
  <defs>
    <style>

      .cls-2 {
        fill: #4a1570;
        filter: url(#color-overlay-1);
      }
    </style>

    <filter id="color-overlay-1" filterUnits="userSpaceOnUse">
      <feFlood flood-color="#bb2268" flood-opacity="1"/>
      <feComposite operator="in" in2="SourceGraphic"/>
      <feBlend mode="normal" in2="SourceGraphic" result="colorOverlay"/>
    </filter>
  </defs>
  <path d="M51.400,24.537 C51.400,24.537 40.910,24.537 40.910,24.537 C40.910,24.537 40.910,39.389 40.910,39.389 C40.910,39.953 40.443,40.410 39.866,40.410 C39.866,40.410 1.049,40.410 1.049,40.410 C0.472,40.410 0.004,39.953 0.004,39.389 C0.004,39.389 0.004,16.904 0.004,16.904 C0.004,16.340 0.472,15.883 1.049,15.883 C1.049,15.883 11.539,15.883 11.539,15.883 C11.539,15.883 11.539,1.031 11.539,1.031 C11.539,0.466 12.007,0.009 12.583,0.009 C12.583,0.009 51.400,0.009 51.400,0.009 C51.977,0.009 52.445,0.466 52.445,1.031 C52.445,1.031 52.445,23.515 52.445,23.515 C52.445,24.079 51.977,24.537 51.400,24.537 ZM2.093,17.926 C2.093,17.926 2.093,38.367 2.093,38.367 C2.093,38.367 38.821,38.367 38.821,38.367 C38.821,38.367 38.821,17.926 38.821,17.926 C38.821,17.926 2.093,17.926 2.093,17.926 ZM50.356,2.052 C50.356,2.052 13.628,2.052 13.628,2.052 C13.628,2.052 13.628,4.965 13.628,4.965 C13.628,4.965 50.356,4.965 50.356,4.965 C50.356,4.965 50.356,2.052 50.356,2.052 ZM50.356,7.008 C50.356,7.008 13.628,7.008 13.628,7.008 C13.628,7.008 13.628,9.801 13.628,9.801 C13.628,9.801 50.356,9.801 50.356,9.801 C50.356,9.801 50.356,7.008 50.356,7.008 ZM50.356,11.844 C50.356,11.844 13.628,11.844 13.628,11.844 C13.628,11.844 13.628,15.883 13.628,15.883 C13.628,15.883 39.866,15.883 39.866,15.883 C40.443,15.883 40.910,16.340 40.910,16.904 C40.910,16.904 40.910,22.493 40.910,22.493 C40.910,22.493 50.356,22.493 50.356,22.493 C50.356,22.493 50.356,11.844 50.356,11.844 ZM32.162,35.961 C31.470,35.961 30.820,35.782 30.257,35.469 C29.678,35.788 29.019,35.961 28.350,35.961 C26.214,35.961 24.477,34.262 24.477,32.174 C24.477,30.085 26.214,28.386 28.350,28.386 C29.019,28.386 29.678,28.559 30.257,28.878 C30.820,28.566 31.470,28.386 32.162,28.386 C34.298,28.386 36.035,30.085 36.035,32.174 C36.035,34.262 34.298,35.961 32.162,35.961 ZM28.707,30.465 C28.591,30.442 28.471,30.429 28.350,30.429 C27.366,30.429 26.566,31.212 26.566,32.174 C26.566,33.135 27.366,33.918 28.350,33.918 C28.472,33.918 28.591,33.905 28.707,33.882 C28.440,33.368 28.289,32.788 28.289,32.174 C28.289,31.559 28.440,30.979 28.707,30.465 ZM32.162,30.429 C31.178,30.429 30.378,31.212 30.378,32.174 C30.378,33.135 31.178,33.918 32.162,33.918 C33.146,33.918 33.946,33.135 33.946,32.174 C33.946,31.212 33.146,30.429 32.162,30.429 ZM34.086,23.334 C34.086,23.334 30.317,23.334 30.317,23.334 C29.740,23.334 29.273,22.877 29.273,22.313 C29.273,21.749 29.740,21.291 30.317,21.291 C30.317,21.291 34.086,21.291 34.086,21.291 C34.663,21.291 35.131,21.749 35.131,22.313 C35.131,22.877 34.663,23.334 34.086,23.334 ZM26.259,23.334 C26.259,23.334 22.490,23.334 22.490,23.334 C21.913,23.334 21.446,22.877 21.446,22.313 C21.446,21.749 21.913,21.291 22.490,21.291 C22.490,21.291 26.259,21.291 26.259,21.291 C26.836,21.291 27.304,21.749 27.304,22.313 C27.304,22.877 26.836,23.334 26.259,23.334 ZM18.389,23.334 C18.389,23.334 14.620,23.334 14.620,23.334 C14.043,23.334 13.575,22.877 13.575,22.313 C13.575,21.749 14.043,21.291 14.620,21.291 C14.620,21.291 18.389,21.291 18.389,21.291 C18.965,21.291 19.433,21.749 19.433,22.313 C19.433,22.877 18.965,23.334 18.389,23.334 ZM10.474,23.334 C10.474,23.334 6.706,23.334 6.706,23.334 C6.129,23.334 5.661,22.877 5.661,22.313 C5.661,21.749 6.129,21.291 6.706,21.291 C6.706,21.291 10.474,21.291 10.474,21.291 C11.051,21.291 11.519,21.749 11.519,22.313 C11.519,22.877 11.051,23.334 10.474,23.334 Z" id="path-1" class="cls-2" fill-rule="evenodd"/>
</svg>
