<svg xmlns="http://www.w3.org/2000/svg" xmlns:xlink="http://www.w3.org/1999/xlink" preserveAspectRatio="xMidYMid" width="41" height="37" viewBox="0 0 41 37">
  <defs>
    <style>

      .cls-2 {
        fill: #bb2268;
      }
    </style>
  </defs>
  <path d="M39.582,36.846 C39.582,36.846 0.797,36.846 0.797,36.846 C0.464,36.846 0.166,36.641 0.046,36.328 C-0.074,36.017 0.010,35.663 0.257,35.438 C0.257,35.438 39.042,0.199 39.042,0.199 C39.278,-0.016 39.617,-0.070 39.908,0.060 C40.199,0.189 40.386,0.479 40.386,0.798 C40.386,0.798 40.386,36.038 40.386,36.038 C40.386,36.484 40.026,36.846 39.582,36.846 ZM38.777,2.619 C38.777,2.619 2.886,35.230 2.886,35.230 C2.886,35.230 38.777,35.230 38.777,35.230 C38.777,35.230 38.777,2.619 38.777,2.619 ZM36.835,22.787 C37.280,22.787 37.640,23.149 37.640,23.595 C37.640,23.595 37.640,24.080 37.640,24.080 C37.640,24.527 37.280,24.889 36.835,24.889 C36.391,24.889 36.031,24.527 36.031,24.080 C36.031,24.080 36.031,23.595 36.031,23.595 C36.031,23.149 36.391,22.787 36.835,22.787 ZM36.835,26.101 C37.280,26.101 37.640,26.463 37.640,26.909 C37.640,26.909 37.640,33.053 37.640,33.053 C37.640,33.499 37.280,33.861 36.835,33.861 C36.391,33.861 36.031,33.499 36.031,33.053 C36.031,33.053 36.031,26.909 36.031,26.909 C36.031,26.463 36.391,26.101 36.835,26.101 ZM29.593,6.840 C29.149,6.840 28.789,6.478 28.789,6.031 C28.789,6.031 28.789,2.728 28.789,2.728 C28.789,2.728 3.263,27.651 3.263,27.651 C3.107,27.804 2.904,27.880 2.702,27.880 C2.492,27.880 2.283,27.798 2.125,27.635 C1.815,27.314 1.823,26.803 2.141,26.491 C2.141,26.491 27.589,1.645 27.589,1.645 C27.589,1.645 24.422,1.645 24.422,1.645 C23.977,1.645 23.617,1.283 23.617,0.836 C23.617,0.390 23.977,0.028 24.422,0.028 C24.422,0.028 29.593,0.028 29.593,0.028 C30.038,0.028 30.398,0.390 30.398,0.836 C30.398,0.836 30.398,6.031 30.398,6.031 C30.398,6.478 30.038,6.840 29.593,6.840 Z" id="path-1" class="cls-2" fill-rule="evenodd"/>
</svg>
