<svg xmlns="http://www.w3.org/2000/svg" xmlns:xlink="http://www.w3.org/1999/xlink" preserveAspectRatio="xMidYMid" width="15" height="43" viewBox="0 0 15 43">
  <defs>
    <style>

      .cls-2 {
        fill: #312e33;
      }
    </style>
  </defs>
  <path d="M14.661,21.454 C14.661,21.454 14.991,21.987 14.991,21.987 C14.991,21.987 13.898,22.705 13.898,22.705 C13.898,22.705 1.510,43.011 1.510,43.011 C1.510,43.011 0.162,42.112 0.162,42.112 C0.162,42.112 12.745,21.486 12.745,21.486 C12.745,21.486 0.009,0.894 0.009,0.894 C0.009,0.894 1.386,-0.011 1.386,-0.011 C1.386,-0.011 14.233,20.761 14.233,20.761 C14.233,20.761 14.838,21.165 14.838,21.165 C14.838,21.165 14.661,21.454 14.661,21.454 Z" id="path-1" class="cls-2" fill-rule="evenodd"/>
</svg>
