<svg xmlns="http://www.w3.org/2000/svg" xmlns:xlink="http://www.w3.org/1999/xlink" preserveAspectRatio="xMidYMid" width="44" height="37" viewBox="0 0 44 37">
  <defs>
    <style>

      .cls-2 {
      fill: #4a1570;
      filter: url(#color-overlay-1);
      }
    </style>
    <filter id="color-overlay-1" filterUnits="userSpaceOnUse">
      <feFlood flood-color="#bb2268" flood-opacity="1"/>
      <feComposite operator="in" in2="SourceGraphic"/>
      <feBlend mode="normal" in2="SourceGraphic" result="colorOverlay"/>
    </filter>
  </defs>
  <path d="M42.377,36.116 C42.377,36.116 4.840,36.116 4.840,36.116 C2.176,36.116 0.009,33.965 0.009,31.320 C0.009,31.320 0.009,12.387 0.009,12.387 C0.009,9.742 2.176,7.591 4.840,7.591 C4.840,7.591 9.203,7.591 9.203,7.591 C9.203,7.591 35.183,0.001 35.183,0.001 C35.403,-0.063 35.640,-0.038 35.841,0.072 C36.042,0.182 36.191,0.367 36.254,0.585 C36.254,0.585 38.279,7.591 38.279,7.591 C38.279,7.591 42.377,7.591 42.377,7.591 C42.852,7.591 43.238,7.974 43.238,8.446 C43.238,8.446 43.238,35.261 43.238,35.261 C43.238,35.734 42.852,36.116 42.377,36.116 ZM34.838,1.884 C34.838,1.884 32.908,2.448 32.908,2.448 C32.908,2.448 34.575,3.303 34.575,3.303 C34.575,3.303 35.365,3.708 35.365,3.708 C35.365,3.708 34.838,1.884 34.838,1.884 ZM36.018,5.967 C36.018,5.967 33.098,4.470 33.098,4.470 C33.098,4.470 30.518,3.147 30.518,3.147 C30.518,3.147 15.304,7.591 15.304,7.591 C15.304,7.591 36.488,7.591 36.488,7.591 C36.488,7.591 36.018,5.967 36.018,5.967 ZM41.516,18.974 C41.516,18.974 34.576,18.974 34.576,18.974 C32.976,18.974 31.675,20.266 31.675,21.854 C31.675,23.442 32.976,24.734 34.576,24.734 C34.576,24.734 41.516,24.734 41.516,24.734 C41.516,24.734 41.516,18.974 41.516,18.974 ZM41.516,26.444 C41.516,26.444 34.576,26.444 34.576,26.444 C32.027,26.444 29.953,24.384 29.953,21.854 C29.953,19.323 32.027,17.263 34.576,17.263 C34.576,17.263 41.515,17.263 41.515,17.263 C41.515,17.263 41.515,9.301 41.515,9.301 C41.515,9.301 4.840,9.301 4.840,9.301 C3.126,9.301 1.732,10.685 1.732,12.387 C1.732,12.387 1.732,31.320 1.732,31.320 C1.732,33.022 3.126,34.406 4.840,34.406 C4.840,34.406 41.516,34.406 41.516,34.406 C41.516,34.406 41.516,26.444 41.516,26.444 ZM22.271,31.665 C22.271,31.665 22.875,31.665 22.875,31.665 C23.350,31.665 23.736,32.047 23.736,32.520 C23.736,32.992 23.350,33.375 22.875,33.375 C22.875,33.375 22.271,33.375 22.271,33.375 C21.795,33.375 21.410,32.992 21.410,32.520 C21.410,32.047 21.795,31.665 22.271,31.665 ZM26.585,31.665 C26.585,31.665 39.529,31.665 39.529,31.665 C40.005,31.665 40.390,32.047 40.390,32.520 C40.390,32.992 40.005,33.375 39.529,33.375 C39.529,33.375 26.585,33.375 26.585,33.375 C26.110,33.375 25.724,32.992 25.724,32.520 C25.724,32.047 26.110,31.665 26.585,31.665 ZM32.282,21.854 C32.282,20.579 33.327,19.542 34.610,19.542 C35.894,19.542 36.939,20.579 36.939,21.854 C36.939,23.128 35.894,24.165 34.610,24.165 C33.327,24.165 32.282,23.128 32.282,21.854 ZM34.611,22.455 C34.945,22.455 35.216,22.185 35.216,21.854 C35.216,21.522 34.945,21.252 34.611,21.252 C34.277,21.252 34.005,21.522 34.005,21.854 C34.005,22.185 34.277,22.455 34.611,22.455 Z" id="path-1" class="cls-2" fill-rule="evenodd"/>
</svg>
